<?xml version="1.0" encoding="UTF-8" standalone="no"?>
<!-- Created with Inkscape (http://www.inkscape.org/) -->

<svg
   version="1.1"
   id="svg1"
   width="587.18707"
   height="215.79623"
   viewBox="0 0 587.18706 215.79623"
   sodipodi:docname="cosenza.svg"
   inkscape:export-filename="cosenza.svg"
   inkscape:export-xdpi="96"
   inkscape:export-ydpi="96"
   inkscape:version="1.4 (e7c3feb100, 2024-10-09)"
   xmlns:inkscape="http://www.inkscape.org/namespaces/inkscape"
   xmlns:sodipodi="http://sodipodi.sourceforge.net/DTD/sodipodi-0.dtd"
   xmlns="http://www.w3.org/2000/svg"
   xmlns:svg="http://www.w3.org/2000/svg">
  <defs
     id="defs1">
    <clipPath
       clipPathUnits="userSpaceOnUse"
       id="clipPath3">
      <path
         d="M 0,0 H 842 V 596 H 0 Z"
         id="path3" />
    </clipPath>
    <clipPath
       clipPathUnits="userSpaceOnUse"
       id="clipPath4">
      <path
         d="M 0,0 H 842 V 596 H 0 Z"
         id="path4" />
    </clipPath>
    <clipPath
       clipPathUnits="userSpaceOnUse"
       id="clipPath5">
      <path
         d="M 0,0 H 842 V 596 H 0 Z"
         id="path5" />
    </clipPath>
  </defs>
  <sodipodi:namedview
     id="namedview1"
     pagecolor="#505050"
     bordercolor="#eeeeee"
     borderopacity="1"
     inkscape:showpageshadow="0"
     inkscape:pageopacity="0"
     inkscape:pagecheckerboard="0"
     inkscape:deskcolor="#505050"
     inkscape:zoom="0.93737408"
     inkscape:cx="258.16801"
     inkscape:cy="138.68529"
     inkscape:window-width="1920"
     inkscape:window-height="955"
     inkscape:window-x="0"
     inkscape:window-y="0"
     inkscape:window-maximized="1"
     inkscape:current-layer="g1">
    <inkscape:page
       x="1.3109834e-06"
       y="3.632791e-06"
       inkscape:label="1"
       id="page1"
       width="587.18707"
       height="215.79623"
       margin="0"
       bleed="0" />
  </sodipodi:namedview>
  <g
     id="g1"
     inkscape:groupmode="layer"
     inkscape:label="1"
     transform="translate(-303.40665,-257.68424)">
    <path
       id="path1"
       d="M 48.059553,-57.385953 H 20.918928 v 17.402344 h 22.6875 c 2.100586,0 3.667969,0.474609 4.699219,1.417968 1.037109,0.9375 1.558594,2.197266 1.558594,3.773438 0,1.579101 -0.527344,2.833008 -1.582032,3.761719 -1.048828,0.93164 -2.607422,1.394531 -4.675781,1.394531 h -22.6875 v 22.3945311 c 0,2.8535156 -0.641601,4.9658203 -1.921875,6.33984377 -1.283203,1.37402344 -2.929687,2.06250003 -4.945312,2.06250003 -2.039063,0 -3.700196,-0.69726565 -4.9804691,-2.08593753 C 7.7880687,-2.3136875 7.1493969,-4.4201328 7.1493969,-7.2414219 V -59.565641 c 0,-1.974609 0.2929687,-3.588867 0.8789062,-4.839843 0.5859375,-1.256836 1.5029297,-2.170899 2.7539059,-2.742188 1.256836,-0.568359 2.859375,-0.855469 4.804688,-0.855469 h 32.472656 c 2.194336,0 3.823242,0.489258 4.886719,1.464844 1.069336,0.969727 1.605469,2.244141 1.605469,3.820313 0,1.611328 -0.536133,2.90332 -1.605469,3.878906 -1.063477,0.969726 -2.692383,1.453125 -4.886719,1.453125 z m 13.21582,50.1445311 V -60.819547 c 0,-2.780273 0.632813,-4.866211 1.898438,-6.257812 1.265625,-1.388672 2.90625,-2.085938 4.921875,-2.085938 2.068359,0 3.744141,0.688477 5.027344,2.0625 1.289062,1.376953 1.933593,3.46875 1.933593,6.28125 v 53.5781251 c 0,2.8212891 -0.644531,4.9277344 -1.933593,6.31640627 -1.283203,1.38867188 -2.958985,2.08593753 -5.027344,2.08593753 -1.986328,0 -3.618164,-0.70312503 -4.898438,-2.10937503 C 61.914045,-2.3547031 61.275373,-4.4523594 61.275373,-7.2414219 Z m 67.649417,-0.4570312 -3.2461,-8.5312499 H 98.034162 l -3.246093,8.7187499 c -1.265625,3.3984375 -2.34961,5.6953125 -3.246094,6.89062497 -0.899414,1.18652344 -2.367188,1.78125003 -4.40625,1.78125003 -1.734375,0 -3.266602,-0.63281253 -4.59375,-1.89843753 C 81.211897,-2.009 80.549787,-3.4474766 80.549787,-5.0500156 c 0,-0.928711 0.152344,-1.8896485 0.457032,-2.8828125 0.310547,-0.9902344 0.823242,-2.3671879 1.535156,-4.1249999 L 99.9326,-56.225797 c 0.49805,-1.265625 1.0957,-2.783203 1.79297,-4.558594 0.69433,-1.78125 1.43555,-3.257812 2.22656,-4.429687 0.78809,-1.177735 1.82227,-2.132813 3.10547,-2.859375 1.28027,-0.726563 2.86523,-1.089844 4.75781,-1.089844 1.91309,0 3.50977,0.363281 4.79297,1.089844 1.28906,0.726562 2.32617,1.664062 3.11719,2.8125 0.78808,1.142578 1.45312,2.367187 1.99219,3.679687 0.53906,1.3125 1.22461,3.067383 2.0625,5.261719 l 17.76562,43.886719 c 1.38867,3.345703 2.08594,5.7744139 2.08594,7.2890624 0,1.5703125 -0.65625,3.0175781 -1.96875,4.33593747 -1.3125,1.3125 -2.90039,1.96875003 -4.75781,1.96875003 -1.07813,0 -2.00391,-0.19628909 -2.77735,-0.58593753 -0.77344,-0.38378906 -1.42676,-0.90527343 -1.95703,-1.5703125 -0.52441,-0.66210937 -1.08691,-1.68164067 -1.6875,-3.05859377 -0.60351,-1.3828125 -1.12207,-2.5957031 -1.55859,-3.6445312 z M 101.65526,-26.577359 h 20.32031 L 111.72166,-54.643766 Z M 179.62303,7.65625e-4 h -20.77734 c -3,0 -5.14454,-0.670898435 -6.4336,-2.015625025 -1.2832,-1.3417969 -1.92187,-3.4833984 -1.92187,-6.421875 V -59.565641 c 0,-3 0.65625,-5.15625 1.96875,-6.46875 1.31836,-1.3125 3.44824,-1.96875 6.38672,-1.96875 h 22.03125 c 3.24902,0 6.06445,0.205078 8.44921,0.609375 2.38184,0.398438 4.51465,1.168946 6.39844,2.308594 1.6084,0.960938 3.0293,2.176758 4.26563,3.644531 1.2334,1.470703 2.17383,3.09375 2.82422,4.875 0.65625,1.775391 0.98437,3.653321 0.98437,5.636719 0,6.796875 -3.4043,11.774414 -10.20703,14.929688 8.93555,2.844726 13.40625,8.378906 13.40625,16.605468 0,3.805664 -0.97852,7.230469 -2.92969,10.2773441 -1.94531,3.046875 -4.57031,5.296875 -7.875,6.75 -2.08008,0.8671875 -4.46191,1.4824219 -7.14844,1.83984377 -2.68945,0.3515625 -5.83007,0.527343755 -9.42187,0.527343755 z M 178.6035,-30.198453 h -14.33203 v 19.851562 h 14.80078 c 9.30469,0 13.95703,-3.354492 13.95703,-10.066406 0,-3.427734 -1.20703,-5.917969 -3.62109,-7.464844 -2.40821,-1.546875 -6.00879,-2.320312 -10.80469,-2.320312 z m -14.33203,-27.457031 v 17.578125 h 12.62109 c 3.42774,0 6.07617,-0.322266 7.94531,-0.972657 1.875,-0.647461 3.30762,-1.886718 4.30078,-3.714843 0.77344,-1.294922 1.16016,-2.748047 1.16016,-4.359375 0,-3.427735 -1.22461,-5.707032 -3.66797,-6.832032 -2.44629,-1.130859 -6.17285,-1.699218 -11.17969,-1.699218 z m 0,0"
       style="fill:#006caa;fill-opacity:1;fill-rule:nonzero;stroke:none"
       aria-label="FIAB"
       transform="matrix(1.3333333,0,0,1.3333333,540.75653,426.42867)" />
    <path
       id="path2"
       d="m 21.328617,-7.0075609 c 0,0.703125 -0.175781,1.4707031 -0.527344,2.296875 -0.345703,0.8203125 -0.890625,1.6289062 -1.640625,2.4257812 -0.75,0.7910156 -1.708007,1.42968751 -2.871093,1.92187501 -1.157227,0.4921875 -2.504883,0.73828125 -4.042969,0.73828125 -1.171875,0 -2.238281,-0.11425781 -3.1992188,-0.33984375 -0.9550781,-0.21679687 -1.8251953,-0.5625 -2.6132813,-1.03125 -0.7822265,-0.46875001 -1.5,-1.08398441 -2.15625,-1.85156251 -0.5800781,-0.6943359 -1.0751953,-1.4707031 -1.4882812,-2.3320312 -0.4160156,-0.8671875 -0.7265625,-1.7871094 -0.9375,-2.765625 -0.2050781,-0.975586 -0.3046875,-2.015625 -0.3046875,-3.1171871 0,-1.78711 0.2578125,-3.386719 0.7734375,-4.792969 0.5214844,-1.41211 1.2685547,-2.619141 2.2382812,-3.621094 0.9667969,-1.007812 2.100586,-1.772461 3.3984375,-2.296875 1.303711,-0.530273 2.6894536,-0.796875 4.1601566,-0.796875 1.795898,0 3.392578,0.360352 4.792968,1.078125 1.40625,0.720703 2.484375,1.605469 3.234375,2.660156 0.75,1.054688 1.125,2.050782 1.125,2.988282 0,0.515625 -0.18457,0.969726 -0.550781,1.359375 -0.360351,0.392578 -0.796875,0.585937 -1.3125,0.585937 -0.580078,0 -1.013672,-0.131836 -1.300781,-0.398437 -0.290039,-0.272461 -0.609375,-0.744141 -0.960938,-1.417969 -0.585937,-1.092774 -1.274414,-1.913086 -2.0625,-2.460938 -0.791015,-0.544922 -1.766601,-0.820312 -2.929687,-0.820312 -1.845703,0 -3.3164063,0.703125 -4.4179688,2.109375 -1.0957031,1.40039 -1.640625,3.392578 -1.640625,5.976562 0,1.7285159 0.2402344,3.1640628 0.7265625,4.3125003 0.4833984,1.1425781 1.171875,1.9921875 2.0625,2.5546875 0.890625,0.5625 1.9277343,0.84375 3.1171873,0.84375 1.289063,0 2.378906,-0.3193359 3.269531,-0.9609375 0.896485,-0.6386719 1.573243,-1.5761719 2.027344,-2.8125 0.19336,-0.5859375 0.433594,-1.0605469 0.714844,-1.4296875 0.28125,-0.375 0.732422,-0.5625 1.359375,-0.5625 0.539062,0 0.999023,0.1875 1.382812,0.5625 0.38086,0.375 0.574219,0.8408203 0.574219,1.3945313 z m 19.212891,-1.0078125 c 0,1.227539 -0.19336,2.3613281 -0.574219,3.3984375 -0.383789,1.040039 -0.9375,1.9335937 -1.664062,2.6835937 -0.726563,0.7441406 -1.59375,1.31250001 -2.601563,1.71093751 -1.007812,0.3984375 -2.144531,0.59765625 -3.410156,0.59765625 -1.250977,0 -2.375977,-0.19921875 -3.375,-0.59765625 -1.001953,-0.40429687 -1.869141,-0.98437501 -2.601563,-1.73437501 -0.726562,-0.75 -1.283203,-1.6347656 -1.664062,-2.6601562 -0.375,-1.03125 -0.5625,-2.1621094 -0.5625,-3.3984375 0,-1.256836 0.19043,-2.4052736 0.574219,-3.4453126 0.380859,-1.037109 0.93164,-1.924805 1.652343,-2.660156 0.717774,-0.732422 1.584961,-1.300781 2.601563,-1.699219 1.022461,-0.398437 2.147461,-0.597656 3.375,-0.597656 1.248047,0 2.381836,0.205078 3.398437,0.609375 1.022461,0.398437 1.898438,0.972656 2.625,1.722656 0.726563,0.744141 1.277344,1.628906 1.652344,2.660156 0.380859,1.03125 0.574219,2.1679691 0.574219,3.4101566 z m -4.148438,0 c 0,-1.6875 -0.37207,-2.9999996 -1.113281,-3.9374996 -0.744141,-0.9375 -1.740234,-1.40625 -2.988281,-1.40625 -0.805664,0 -1.517578,0.210937 -2.132813,0.632812 -0.618164,0.416016 -1.095703,1.03125 -1.429687,1.851563 -0.328125,0.814453 -0.492188,1.7666011 -0.492188,2.8593746 0,1.078125 0.164063,2.0214843 0.492188,2.8242187 0.328125,0.8056641 0.796875,1.4238281 1.40625,1.8515625 0.609375,0.4306641 1.327148,0.6445313 2.15625,0.6445313 1.248047,0 2.24414,-0.46875 2.988281,-1.40625 0.741211,-0.9433594 1.113281,-2.25 1.113281,-3.9140625 z m 20.704102,2.9882812 c 0,1.1425781 -0.27832,2.1181641 -0.832031,2.9296875 -0.556641,0.8144531 -1.376953,1.42968751 -2.460938,1.85156251 -1.078125,0.41308594 -2.396484,0.62109375 -3.949219,0.62109375 -1.485351,0 -2.759765,-0.22851562 -3.820312,-0.6796875 -1.054688,-0.45117187 -1.836914,-1.01953126 -2.34375,-1.69921876 -0.509766,-0.6796875 -0.761719,-1.3623047 -0.761719,-2.0507812 0,-0.4511719 0.158203,-0.8378907 0.480469,-1.1601563 0.328125,-0.328125 0.738281,-0.4921875 1.230469,-0.4921875 0.436523,0 0.767578,0.1054688 0.996093,0.3164063 0.234375,0.2109375 0.457032,0.5097656 0.667969,0.890625 0.427735,0.7441406 0.9375,1.2978515 1.523438,1.6640625 0.591797,0.3603515 1.397461,0.5390625 2.414062,0.5390625 0.826172,0 1.50586,-0.1816407 2.039063,-0.5507813 0.530273,-0.375 0.796875,-0.796875 0.796875,-1.265625 0,-0.7265625 -0.278321,-1.2568359 -0.832032,-1.59375 -0.547851,-0.3339844 -1.450195,-0.6503906 -2.707031,-0.9492187 -1.429687,-0.3515625 -2.589844,-0.7207032 -3.480469,-1.1132813 -0.890625,-0.3896484 -1.605468,-0.9023437 -2.144531,-1.5351562 -0.533203,-0.6386719 -0.796875,-1.4208981 -0.796875,-2.3437501 0,-0.826172 0.246094,-1.608398 0.738281,-2.34375 0.498047,-0.741211 1.230469,-1.330078 2.191407,-1.769531 0.960937,-0.436524 2.124023,-0.65625 3.492187,-0.65625 1.060547,0 2.018555,0.114258 2.871094,0.339844 0.858398,0.219726 1.573242,0.515625 2.144531,0.890625 0.56836,0.36914 1.001953,0.779296 1.300781,1.230468 0.295899,0.454102 0.445313,0.899414 0.445313,1.335938 0,0.477539 -0.161133,0.867187 -0.480469,1.171875 -0.313476,0.298828 -0.761719,0.445312 -1.347656,0.445312 -0.430664,0 -0.793945,-0.120117 -1.089844,-0.363281 -0.298828,-0.240234 -0.638672,-0.603516 -1.019531,-1.089844 -0.313477,-0.404297 -0.679688,-0.729492 -1.101563,-0.972656 -0.421875,-0.240234 -0.996093,-0.363281 -1.722656,-0.363281 -0.75,0 -1.376953,0.161133 -1.875,0.480469 -0.492187,0.322265 -0.738281,0.720703 -0.738281,1.195312 0,0.430664 0.178711,0.785156 0.539062,1.066406 0.366211,0.275391 0.858399,0.503907 1.476563,0.691407 0.615234,0.18164 1.464844,0.3984371 2.542969,0.6562496 1.280273,0.3134765 2.326172,0.6884765 3.140625,1.125 0.811523,0.430664 1.423828,0.9433593 1.839843,1.5351562 0.421875,0.5859375 0.632813,1.2597656 0.632813,2.015625 z m 15.00293,-1.9804687 h -8.074219 c 0.0059,0.9375 0.193359,1.7666015 0.5625,2.484375 0.366211,0.7207031 0.855469,1.2626953 1.464844,1.6289062 0.609375,0.3603516 1.283203,0.5390625 2.027343,0.5390625 0.492188,0 0.94043,-0.058594 1.347657,-0.1757812 0.413086,-0.1171875 0.811523,-0.2958985 1.195312,-0.5390625 0.380859,-0.2490235 0.732422,-0.515625 1.054688,-0.796875 0.319336,-0.2871094 0.738281,-0.6738282 1.253906,-1.1601563 0.210937,-0.1787109 0.515625,-0.2695312 0.914062,-0.2695312 0.421875,0 0.761719,0.1171875 1.019532,0.3515625 0.263671,0.2285156 0.398437,0.5566406 0.398437,0.984375 0,0.3691406 -0.149414,0.8027343 -0.445312,1.3007812 -0.290039,0.5009766 -0.732422,0.9814453 -1.324219,1.4414063 -0.585938,0.46289059 -1.324219,0.84374996 -2.214844,1.14843746 -0.890625,0.29589844 -1.918945,0.4453125 -3.082031,0.4453125 -2.657227,0 -4.722656,-0.75292969 -6.199219,-2.26171876 -1.470703,-1.5146484 -2.203125,-3.5683594 -2.203125,-6.1640625 0,-1.21875 0.178711,-2.3496093 0.539063,-3.3984373 0.366211,-1.045899 0.896484,-1.939453 1.59375,-2.683594 0.694336,-0.75 1.549804,-1.324219 2.566406,-1.722656 1.022461,-0.398438 2.15625,-0.597656 3.398437,-0.597656 1.617188,0 3.00293,0.339843 4.160157,1.019531 1.154296,0.679687 2.018554,1.564453 2.589843,2.648437 0.577149,1.078125 0.867188,2.176758 0.867188,3.2929691 0,1.040039 -0.301758,1.7167968 -0.902344,2.0273437 -0.594726,0.3046875 -1.429687,0.4570313 -2.507812,0.4570313 z m -8.074219,-2.34375 h 7.488281 c -0.102539,-1.4121091 -0.486328,-2.4667971 -1.148437,-3.1640621 -0.65625,-0.703125 -1.523438,-1.054688 -2.601563,-1.054688 -1.03125,0 -1.880859,0.357422 -2.542969,1.066406 -0.65625,0.711914 -1.054687,1.763672 -1.195312,3.1523441 z m 18.706055,-4.7812501 v 0.492188 c 0.726562,-0.952149 1.517578,-1.652344 2.378906,-2.097657 0.867187,-0.451172 1.863281,-0.679687 2.988281,-0.679687 1.083984,0 2.056641,0.240234 2.917969,0.714844 0.858398,0.46875 1.5,1.136718 1.921875,2.003906 0.272461,0.509765 0.448242,1.054687 0.527344,1.640625 0.07617,0.585937 0.117187,1.333008 0.117187,2.2382811 v 7.6875 c 0,0.8291015 -0.1875,1.45312496 -0.5625,1.87499996 -0.375,0.421875 -0.867187,0.6328125 -1.476562,0.6328125 -0.618165,0 -1.119141,-0.21679687 -1.5,-0.64453125 -0.38379,-0.43652344 -0.574219,-1.05761721 -0.574219,-1.86328121 v -6.890625 c 0,-1.3593751 -0.19336,-2.3964841 -0.574219,-3.1171871 -0.375,-0.726563 -1.125,-1.089844 -2.25,-1.089844 -0.744141,0 -1.417969,0.222656 -2.027344,0.667969 -0.603515,0.439453 -1.042968,1.040039 -1.324218,1.804687 -0.205079,0.618164 -0.304688,1.7666016 -0.304688,3.4453126 v 5.1796875 c 0,0.8378906 -0.196289,1.46484371 -0.585937,1.88671871 -0.38379,0.41308594 -0.884766,0.62109375 -1.5,0.62109375 -0.594727,0 -1.083985,-0.21679687 -1.464844,-0.64453125 C 79.05518,-0.70580313 78.86475,-1.3268969 78.86475,-2.1325609 V -14.073967 c 0,-0.788086 0.169922,-1.374024 0.515625,-1.757813 0.342773,-0.389648 0.811523,-0.585937 1.40625,-0.585937 0.357422,0 0.682617,0.08789 0.972656,0.257812 0.295899,0.172852 0.530274,0.430664 0.703125,0.773438 0.178711,0.336914 0.269532,0.755859 0.269532,1.253906 z m 26.200192,2.449219 -7.55859,8.4609373 h 8.09766 c 0.65625,0 1.14843,0.1582031 1.47656,0.46875 0.33398,0.3046875 0.5039,0.7001953 0.5039,1.1835938 0,0.4628906 -0.16406,0.84082027 -0.49218,1.13671871 -0.32813,0.29003906 -0.82618,0.4335937525 -1.48828,0.4335937525 H 98.26807 c -0.791015,0 -1.379882,-0.1699218725 -1.769531,-0.5156250025 C 96.11475,-0.85814688 95.92432,-1.3268969 95.92432,-1.9216234 c 0,-0.3515625 0.131836,-0.7060547 0.398438,-1.0664063 0.272461,-0.3574219 0.83789,-1.0195312 1.699219,-1.9804687 0.905273,-1.0078125 1.728515,-1.9160157 2.472653,-2.7304688 0.74121,-0.8203125 1.42969,-1.5849609 2.0625,-2.296875 0.63867,-0.7089848 1.16602,-1.3124998 1.58203,-1.8046878 0.42188,-0.498047 0.76172,-0.925781 1.01954,-1.277343 h -6.152348 c -0.84375,0 -1.485352,-0.07324 -1.921875,-0.222657 -0.430664,-0.155273 -0.644532,-0.553711 -0.644532,-1.195312 0,-0.47461 0.164063,-0.855469 0.492188,-1.136719 0.328125,-0.28125 0.791015,-0.421875 1.394531,-0.421875 h 9.492186 c 0.87305,0 1.54688,0.128906 2.01563,0.386719 0.46875,0.257812 0.70312,0.720703 0.70312,1.382812 0,0.219727 -0.0469,0.451172 -0.14062,0.691407 -0.0879,0.234375 -0.18457,0.430664 -0.29297,0.585937 -0.11133,0.149414 -0.26367,0.333984 -0.45703,0.550781 -0.1875,0.210938 -0.42774,0.46875 -0.71485,0.773438 z m 15.33399,9.7265623 c -1.00196,0.7822266 -1.96875,1.36816407 -2.90625,1.75781251 -0.93164,0.38085938 -1.97461,0.57421875 -3.12891,0.57421875 -1.06348,0 -1.99805,-0.20800781 -2.80078,-0.62109375 -0.79688,-0.421875 -1.41504,-0.98730471 -1.85156,-1.69921871 -0.43067,-0.7177735 -0.64453,-1.4941407 -0.64453,-2.3320313 0,-1.1308594 0.35449,-2.0976562 1.0664,-2.8945312 0.71778,-0.796875 1.70215,-1.3300782 2.95313,-1.6054688 0.26367,-0.061523 0.91699,-0.1992187 1.95703,-0.4101562 1.03711,-0.2109375 1.92773,-0.4013672 2.67187,-0.5742188 0.74121,-0.1787109 1.54688,-0.3984378 2.41407,-0.6562498 -0.0469,-1.083985 -0.26661,-1.88086 -0.65625,-2.390625 -0.39258,-0.506836 -1.19532,-0.761719 -2.41407,-0.761719 -1.04882,0 -1.83691,0.146484 -2.36718,0.433594 -0.53321,0.290039 -0.99024,0.726562 -1.3711,1.3125 -0.375,0.585937 -0.6416,0.972656 -0.79687,1.160156 -0.15821,0.1875 -0.49219,0.28125 -1.00782,0.28125 -0.46289,0 -0.86425,-0.146484 -1.20703,-0.445312 -0.33691,-0.295899 -0.5039,-0.679688 -0.5039,-1.148438 0,-0.726562 0.25781,-1.429687 0.77343,-2.109375 0.51563,-0.685547 1.31543,-1.253906 2.40235,-1.699219 1.09277,-0.445312 2.45215,-0.667968 4.07812,-0.667968 1.81055,0 3.23731,0.216796 4.27735,0.644531 1.03711,0.430664 1.77246,1.110351 2.20312,2.039062 0.42774,0.931641 0.64453,2.16211 0.64453,3.691407 0,0.9697261 -0.006,1.7929683 -0.0117,2.4726558 0,0.6738281 -0.006,1.4238281 -0.0117,2.25 0,0.7734375 0.12304,1.5820313 0.375,2.4257813 0.25781,0.84375 0.38671,1.3886718 0.38671,1.6289062 0,0.42187501 -0.19921,0.80859376 -0.59765,1.16015626 -0.39844,0.34277344 -0.84961,0.515625 -1.34766,0.515625 -0.42187,0 -0.84082,-0.19921875 -1.2539,-0.59765625 -0.41602,-0.3984375 -0.85547,-0.97558591 -1.32422,-1.73437501 z m -0.26953,-5.9765625 c -0.60352,0.2285156 -1.48243,0.4658203 -2.63672,0.7148438 -1.15723,0.243164 -1.95703,0.421875 -2.40235,0.5390625 -0.44531,0.1171875 -0.87304,0.3457031 -1.27734,0.6796875 -0.39844,0.336914 -0.59766,0.8085937 -0.59766,1.4179687 0,0.6269531 0.23438,1.1572266 0.70313,1.59375 0.47461,0.4394531 1.0957,0.65625 1.86328,0.65625 0.82031,0 1.57324,-0.1787109 2.26172,-0.5390625 0.69433,-0.3574219 1.20117,-0.8203125 1.52344,-1.3828125 0.375,-0.6240234 0.5625,-1.6523437 0.5625,-3.0820312 z m 23.05664,3.1992188 c 0,0.515625 -0.15235,1.0664062 -0.45703,1.6523437 -0.30469,0.5800781 -0.77344,1.1337891 -1.40625,1.6640625 -0.63282,0.53320314 -1.42969,0.96093751 -2.39063,1.28906251 -0.95508,0.31933594 -2.0332,0.48046875 -3.23437,0.48046875 -2.55469,0 -4.54688,-0.74121094 -5.97657,-2.22656246 -1.42968,-1.491211 -2.14453,-3.4921875 -2.14453,-6 0,-1.6933594 0.32813,-3.1904296 0.98438,-4.4882816 0.65625,-1.303711 1.59961,-2.311523 2.83593,-3.023437 1.24219,-0.708985 2.72461,-1.066406 4.45313,-1.066406 1.06934,0 2.05078,0.158203 2.94141,0.46875 0.89648,0.313476 1.65527,0.720703 2.27343,1.21875 0.61524,0.492187 1.08985,1.019531 1.41797,1.582031 0.32813,0.55664 0.49219,1.075195 0.49219,1.558594 0,0.492187 -0.18457,0.911132 -0.55078,1.253906 -0.36914,0.345703 -0.81446,0.5156248 -1.33594,0.5156248 -0.3457,0 -0.62988,-0.084961 -0.85547,-0.2578128 -0.22851,-0.178711 -0.48047,-0.46289 -0.76172,-0.855468 -0.50976,-0.764649 -1.04004,-1.338868 -1.59375,-1.722657 -0.54785,-0.389648 -1.24218,-0.585937 -2.08593,-0.585937 -1.21875,0 -2.20313,0.477539 -2.95313,1.429687 -0.74414,0.955078 -1.11328,2.2587894 -1.11328,3.9140628 0,0.7822266 0.0937,1.4970703 0.28125,2.1445313 0.19336,0.6503906 0.47168,1.2041015 0.83203,1.6640625 0.36621,0.4628906 0.80273,0.8144531 1.3125,1.0546875 0.51563,0.234375 1.08106,0.3515625 1.69922,0.3515625 0.82617,0 1.53516,-0.1904297 2.12109,-0.5742188 0.5918,-0.3896484 1.11621,-0.9755859 1.57032,-1.7578125 0.25781,-0.46875 0.53027,-0.8320312 0.82031,-1.0898437 0.28711,-0.2636719 0.64746,-0.3984375 1.07812,-0.3984375 0.49805,0 0.91407,0.1933593 1.24219,0.5742187 0.33398,0.3837891 0.50391,0.7939453 0.50391,1.2304688 z m 7.7373,-9.3398436 v 11.9414061 c 0,0.8291015 -0.19922,1.45312496 -0.59765,1.87499996 -0.39258,0.421875 -0.89063,0.6328125 -1.5,0.6328125 -0.60352,0 -1.09571,-0.21679687 -1.47657,-0.64453125 -0.375,-0.43652344 -0.5625,-1.05761721 -0.5625,-1.86328121 V -13.95678 c 0,-0.811523 0.1875,-1.423828 0.5625,-1.839843 0.38086,-0.413086 0.87305,-0.621094 1.47657,-0.621094 0.60937,0 1.10742,0.208008 1.5,0.621094 0.39843,0.416015 0.59765,0.990234 0.59765,1.722656 z m -2.05078,-4.265625 c -0.57129,0 -1.06348,-0.175781 -1.47656,-0.527344 -0.40723,-0.357422 -0.60938,-0.858398 -0.60938,-1.5 0,-0.585937 0.20508,-1.066406 0.6211,-1.441406 0.42187,-0.38086 0.9082,-0.574219 1.46484,-0.574219 0.53906,0 1.01367,0.172852 1.42969,0.515625 0.41308,0.345703 0.62109,0.84375 0.62109,1.5 0,0.632813 -0.20508,1.130859 -0.60937,1.488281 -0.40723,0.360352 -0.8877,0.539063 -1.44141,0.539063 z m 21.09668,13.6054686 c 0,0.515625 -0.15234,1.0664062 -0.45703,1.6523437 -0.30469,0.5800781 -0.77344,1.1337891 -1.40625,1.6640625 -0.63281,0.53320314 -1.42969,0.96093751 -2.39063,1.28906251 -0.95507,0.31933594 -2.0332,0.48046875 -3.23437,0.48046875 -2.55469,0 -4.54688,-0.74121094 -5.97656,-2.22656246 -1.42969,-1.491211 -2.14454,-3.4921875 -2.14454,-6 0,-1.6933594 0.32813,-3.1904296 0.98438,-4.4882816 0.65625,-1.303711 1.59961,-2.311523 2.83594,-3.023437 1.24218,-0.708985 2.72461,-1.066406 4.45312,-1.066406 1.06934,0 2.05078,0.158203 2.94141,0.46875 0.89648,0.313476 1.65527,0.720703 2.27344,1.21875 0.61523,0.492187 1.08984,1.019531 1.41796,1.582031 0.32813,0.55664 0.49219,1.075195 0.49219,1.558594 0,0.492187 -0.18457,0.911132 -0.55078,1.253906 -0.36914,0.345703 -0.81445,0.5156248 -1.33594,0.5156248 -0.3457,0 -0.62988,-0.084961 -0.85547,-0.2578128 -0.22851,-0.178711 -0.48046,-0.46289 -0.76171,-0.855468 -0.50977,-0.764649 -1.04004,-1.338868 -1.59375,-1.722657 -0.54786,-0.389648 -1.24219,-0.585937 -2.08594,-0.585937 -1.21875,0 -2.20313,0.477539 -2.95313,1.429687 -0.74414,0.955078 -1.11328,2.2587894 -1.11328,3.9140628 0,0.7822266 0.0937,1.4970703 0.28125,2.1445313 0.19336,0.6503906 0.47168,1.2041015 0.83203,1.6640625 0.36621,0.4628906 0.80274,0.8144531 1.3125,1.0546875 0.51563,0.234375 1.08106,0.3515625 1.69922,0.3515625 0.82617,0 1.53516,-0.1904297 2.1211,-0.5742188 0.59179,-0.3896484 1.11621,-0.9755859 1.57031,-1.7578125 0.25781,-0.46875 0.53027,-0.8320312 0.82031,-1.0898437 0.28711,-0.2636719 0.64746,-0.3984375 1.07813,-0.3984375 0.49804,0 0.91406,0.1933593 1.24218,0.5742187 0.33399,0.3837891 0.50391,0.7939453 0.50391,1.2304688 z m 3.60059,2.6015625 V -20.05053 c 0,-0.826172 0.18164,-1.453125 0.55078,-1.875 0.36621,-0.427734 0.86133,-0.644531 1.48828,-0.644531 0.63281,0 1.13965,0.210938 1.52344,0.632813 0.38086,0.421875 0.57421,1.051757 0.57421,1.886718 v 17.9179691 c 0,0.8378906 -0.19628,1.46484371 -0.58593,1.88671871 -0.39258,0.41308594 -0.89649,0.62109375 -1.51172,0.62109375 -0.60352,0 -1.0957,-0.21679687 -1.47656,-0.64453125 -0.375,-0.43652344 -0.5625,-1.05761721 -0.5625,-1.86328121 z m 18.81152,0.1757812 c -1.00195,0.7822266 -1.96875,1.36816407 -2.90625,1.75781251 -0.93164,0.38085938 -1.97461,0.57421875 -3.12891,0.57421875 -1.06347,0 -1.99804,-0.20800781 -2.80078,-0.62109375 -0.79687,-0.421875 -1.41504,-0.98730471 -1.85156,-1.69921871 -0.43066,-0.7177735 -0.64453,-1.4941407 -0.64453,-2.3320313 0,-1.1308594 0.35449,-2.0976562 1.0664,-2.8945312 0.71778,-0.796875 1.70215,-1.3300782 2.95313,-1.6054688 0.26367,-0.061523 0.91699,-0.1992187 1.95703,-0.4101562 1.03711,-0.2109375 1.92773,-0.4013672 2.67188,-0.5742188 0.74121,-0.1787109 1.54687,-0.3984378 2.41406,-0.6562498 -0.0469,-1.083985 -0.2666,-1.88086 -0.65625,-2.390625 -0.39258,-0.506836 -1.19531,-0.761719 -2.41406,-0.761719 -1.04883,0 -1.83692,0.146484 -2.36719,0.433594 -0.53321,0.290039 -0.99024,0.726562 -1.3711,1.3125 -0.375,0.585937 -0.6416,0.972656 -0.79687,1.160156 -0.1582,0.1875 -0.49219,0.28125 -1.00781,0.28125 -0.46289,0 -0.86426,-0.146484 -1.20703,-0.445312 -0.33692,-0.295899 -0.50391,-0.679688 -0.50391,-1.148438 0,-0.726562 0.25781,-1.429687 0.77344,-2.109375 0.51562,-0.685547 1.31543,-1.253906 2.40234,-1.699219 1.09277,-0.445312 2.45215,-0.667968 4.07813,-0.667968 1.81054,0 3.2373,0.216796 4.27734,0.644531 1.03711,0.430664 1.77246,1.110351 2.20312,2.039062 0.42774,0.931641 0.64454,2.16211 0.64454,3.691407 0,0.9697261 -0.006,1.7929683 -0.0117,2.4726558 0,0.6738281 -0.006,1.4238281 -0.0117,2.25 0,0.7734375 0.12304,1.5820313 0.375,2.4257813 0.25781,0.84375 0.38672,1.3886718 0.38672,1.6289062 0,0.42187501 -0.19922,0.80859376 -0.59766,1.16015626 -0.39844,0.34277344 -0.84961,0.515625 -1.34766,0.515625 -0.42187,0 -0.84082,-0.19921875 -1.2539,-0.59765625 -0.41602,-0.3984375 -0.85547,-0.97558591 -1.32422,-1.73437501 z m -0.26953,-5.9765625 c -0.60352,0.2285156 -1.48242,0.4658203 -2.63672,0.7148438 -1.15723,0.243164 -1.95703,0.421875 -2.40234,0.5390625 -0.44532,0.1171875 -0.87305,0.3457031 -1.27735,0.6796875 -0.39844,0.336914 -0.59765,0.8085937 -0.59765,1.4179687 0,0.6269531 0.23437,1.1572266 0.70312,1.59375 0.47461,0.4394531 1.0957,0.65625 1.86328,0.65625 0.82031,0 1.57324,-0.1787109 2.26172,-0.5390625 0.69434,-0.3574219 1.20117,-0.8203125 1.52344,-1.3828125 0.375,-0.6240234 0.5625,-1.6523437 0.5625,-3.0820312 z m 12.06445,-12.2695308 v 6.304687 c 0.77344,-0.802734 1.56152,-1.420898 2.36719,-1.851562 0.81152,-0.427735 1.81055,-0.644532 3,-0.644532 1.37402,0 2.57812,0.328125 3.60937,0.984375 1.03125,0.650391 1.83106,1.590821 2.40235,2.824219 0.56836,1.236328 0.85547,2.7011719 0.85547,4.3945313 0,1.2509766 -0.16114,2.3994141 -0.48047,3.4453125 -0.31348,1.0488281 -0.77344,1.9541016 -1.38282,2.71875 -0.60351,0.7675781 -1.33593,1.35937501 -2.20312,1.78125001 -0.86133,0.41308594 -1.81055,0.62109375 -2.84766,0.62109375 -0.63281,0 -1.23047,-0.0761719 -1.79297,-0.22265625 -0.5625,-0.14941406 -1.04003,-0.34570312 -1.42968,-0.59765625 -0.39258,-0.24902344 -0.72657,-0.50390625 -1.00782,-0.76171876 -0.27539,-0.2636719 -0.63867,-0.6591797 -1.08984,-1.1835937 v 0.4101562 c 0,0.7734375 -0.1875,1.35937501 -0.5625,1.75781251 -0.375,0.3984375 -0.85254,0.59765625 -1.42969,0.59765625 -0.58593,0 -1.05468,-0.19921875 -1.40625,-0.59765625 -0.3457,-0.3984375 -0.51562,-0.98437501 -0.51562,-1.75781251 V -20.027092 c 0,-0.834961 0.16699,-1.467774 0.5039,-1.898438 0.34278,-0.427734 0.81446,-0.644531 1.41797,-0.644531 0.63868,0 1.13086,0.208008 1.47657,0.621094 0.34277,0.407226 0.51562,0.990234 0.51562,1.746094 z m 0.1875,12.2695308 c 0,1.6494141 0.375,2.9150391 1.125,3.796875 0.75586,0.8847656 1.74609,1.3242188 2.96484,1.3242188 1.03711,0 1.9336,-0.4482422 2.6836,-1.3476563 0.75586,-0.9052734 1.13672,-2.203125 1.13672,-3.890625 0,-1.0927734 -0.16114,-2.0302733 -0.48047,-2.8125003 -0.31348,-0.788086 -0.75879,-1.397461 -1.33594,-1.828125 -0.57129,-0.427734 -1.23926,-0.644531 -2.00391,-0.644531 -0.79101,0 -1.49414,0.216797 -2.10937,0.644531 -0.60938,0.430664 -1.0957,1.051758 -1.45313,1.863282 -0.35156,0.814453 -0.52734,1.7783199 -0.52734,2.8945308 z m 19.50293,-6.1406248 v 11.9414061 c 0,0.8291015 -0.19922,1.45312496 -0.59766,1.87499996 -0.39257,0.421875 -0.89062,0.6328125 -1.5,0.6328125 -0.60351,0 -1.0957,-0.21679687 -1.47656,-0.64453125 -0.375,-0.43652344 -0.5625,-1.05761721 -0.5625,-1.86328121 V -13.95678 c 0,-0.811523 0.1875,-1.423828 0.5625,-1.839843 0.38086,-0.413086 0.87305,-0.621094 1.47656,-0.621094 0.60938,0 1.10743,0.208008 1.5,0.621094 0.39844,0.416015 0.59766,0.990234 0.59766,1.722656 z m -2.05078,-4.265625 c -0.57129,0 -1.06348,-0.175781 -1.47656,-0.527344 -0.40723,-0.357422 -0.60938,-0.858398 -0.60938,-1.5 0,-0.585937 0.20508,-1.066406 0.6211,-1.441406 0.42187,-0.38086 0.9082,-0.574219 1.46484,-0.574219 0.53906,0 1.01367,0.172852 1.42969,0.515625 0.41308,0.345703 0.62109,0.84375 0.62109,1.5 0,0.632813 -0.20508,1.130859 -0.60937,1.488281 -0.40723,0.360352 -0.8877,0.539063 -1.44141,0.539063 z m 6.28418,16.2070311 V -20.05053 c 0,-0.826172 0.18164,-1.453125 0.55078,-1.875 0.36621,-0.427734 0.86133,-0.644531 1.48828,-0.644531 0.63281,0 1.13965,0.210938 1.52344,0.632813 0.38086,0.421875 0.57422,1.051757 0.57422,1.886718 v 17.9179691 c 0,0.8378906 -0.19629,1.46484371 -0.58594,1.88671871 -0.39258,0.41308594 -0.89648,0.62109375 -1.51172,0.62109375 -0.60351,0 -1.0957,-0.21679687 -1.47656,-0.64453125 -0.375,-0.43652344 -0.5625,-1.05761721 -0.5625,-1.86328121 z m 19.90137,-4.875 h -8.07422 c 0.006,0.9375 0.19336,1.7666015 0.5625,2.484375 0.36621,0.7207031 0.85547,1.2626953 1.46484,1.6289062 0.60938,0.3603516 1.2832,0.5390625 2.02735,0.5390625 0.49218,0 0.94042,-0.058594 1.34765,-0.1757812 0.41309,-0.1171875 0.81152,-0.2958985 1.19531,-0.5390625 0.38086,-0.2490235 0.73243,-0.515625 1.05469,-0.796875 0.31934,-0.2871094 0.73828,-0.6738282 1.25391,-1.1601563 0.21094,-0.1787109 0.51562,-0.2695312 0.91406,-0.2695312 0.42188,0 0.76172,0.1171875 1.01953,0.3515625 0.26367,0.2285156 0.39844,0.5566406 0.39844,0.984375 0,0.3691406 -0.14942,0.8027343 -0.44531,1.3007812 -0.29004,0.5009766 -0.73243,0.9814453 -1.32422,1.4414063 -0.58594,0.46289059 -1.32422,0.84374996 -2.21485,1.14843746 -0.89062,0.29589844 -1.91894,0.4453125 -3.08203,0.4453125 -2.65722,0 -4.72265,-0.75292969 -6.19922,-2.26171876 -1.4707,-1.5146484 -2.20312,-3.5683594 -2.20312,-6.1640625 0,-1.21875 0.17871,-2.3496093 0.53906,-3.3984373 0.36621,-1.045899 0.89649,-1.939453 1.59375,-2.683594 0.69434,-0.75 1.54981,-1.324219 2.56641,-1.722656 1.02246,-0.398438 2.15625,-0.597656 3.39844,-0.597656 1.61718,0 3.00292,0.339843 4.16015,1.019531 1.1543,0.679687 2.01856,1.564453 2.58985,2.648437 0.57714,1.078125 0.86718,2.176758 0.86718,3.2929691 0,1.040039 -0.30176,1.7167968 -0.90234,2.0273437 -0.59473,0.3046875 -1.42969,0.4570313 -2.50781,0.4570313 z m -8.07422,-2.34375 h 7.48828 c -0.10254,-1.4121091 -0.48633,-2.4667971 -1.14844,-3.1640621 -0.65625,-0.703125 -1.52344,-1.054688 -2.60156,-1.054688 -1.03125,0 -1.88086,0.357422 -2.54297,1.066406 -0.65625,0.711914 -1.05469,1.763672 -1.19531,3.1523441 z m 0,0"
       style="fill:#006caa;fill-opacity:1;fill-rule:nonzero;stroke:none"
       aria-label="Cosenzaciclabile"
       transform="matrix(1.3333333,0,0,1.3333333,550.222,472.98013)" />
    <g
       id="g8">
      <path
         d="m 271.176,309.996 c 0,-4.695 -3.809,-8.504 -8.504,-8.504 -4.699,0 -8.504,3.809 -8.504,8.504 0,4.695 3.805,8.504 8.504,8.504 4.695,0 8.504,-3.809 8.504,-8.504"
         style="fill:#006caa;fill-opacity:1;fill-rule:nonzero;stroke:none"
         transform="matrix(1.3333333,0,0,-1.3333333,0,794.66667)"
         clip-path="url(#clipPath3)"
         id="path6" />
      <path
         d="m 369.66,309.801 c 0,-4.696 -3.805,-8.504 -8.504,-8.504 -4.695,0 -8.504,3.808 -8.504,8.504 0,4.695 3.809,8.504 8.504,8.504 4.699,0 8.504,-3.809 8.504,-8.504"
         style="fill:#006caa;fill-opacity:1;fill-rule:nonzero;stroke:none"
         transform="matrix(1.3333333,0,0,-1.3333333,0,794.66667)"
         clip-path="url(#clipPath4)"
         id="path7" />
      <path
         d="m 361.156,284.742 c -13.84,0 -25.058,11.219 -25.058,25.059 0,13.84 11.218,25.058 25.058,25.058 13.84,0 25.059,-11.218 25.059,-25.058 0,-13.84 -11.219,-25.059 -25.059,-25.059 M 311.25,327.375 294.125,357.5 H 328.5 Z m -13.715,-9.918 c -2.484,10.965 -10.047,19.996 -20.09,24.492 L 283.5,355 304.75,317.457 Z m -34.547,-32.91 c -13.84,0 -25.058,11.215 -25.058,25.055 0,13.843 11.218,25.062 25.058,25.062 13.84,0 25.059,-11.219 25.059,-25.062 0,-13.84 -11.219,-25.055 -25.059,-25.055 m 98.168,60.687 c -2.375,0 -4.691,-0.238 -6.937,-0.683 l -15.551,39.117 15.914,9.152 c 2.543,1.465 3.414,4.715 1.945,7.258 -1.468,2.543 -4.718,3.414 -7.261,1.945 L 325.301,387.699 332.75,368 h -42.918 l -4.391,12.184 H 290 c 2.934,0 5.316,2.382 5.316,5.316 0,2.934 -2.382,5.316 -5.316,5.316 h -26.332 c -2.938,0 -5.316,-2.382 -5.316,-5.316 0,-2.934 2.378,-5.316 5.316,-5.316 h 10.344 l 4.82,-13.016 -11.75,-22.375 c -1.348,0.156 -2.711,0.246 -4.094,0.246 -19.57,0 -35.433,-15.867 -35.433,-35.437 0,-19.567 15.863,-35.43 35.433,-35.43 18.52,0 33.715,14.215 35.289,32.328 h 15.055 l 25.168,48.25 5.699,-13.832 c -11.008,-6.012 -18.476,-17.691 -18.476,-31.117 0,-19.571 15.867,-35.434 35.433,-35.434 19.571,0 35.434,15.863 35.434,35.434 0,19.57 -15.863,35.433 -35.434,35.433"
         style="fill:#006caa;fill-opacity:1;fill-rule:nonzero;stroke:none"
         transform="matrix(1.3333333,0,0,-1.3333333,0,794.66667)"
         clip-path="url(#clipPath5)"
         id="path8" />
    </g>
  </g>
</svg>
